<?xml version="1.0" encoding="iso-8859-1"?>
<!-- Generator: Adobe Illustrator 18.1.1, SVG Export Plug-In . SVG Version: 6.00 Build 0)  -->
<svg version="1.1" id="Capa_1" xmlns="http://www.w3.org/2000/svg" xmlns:xlink="http://www.w3.org/1999/xlink" x="0px" y="0px"
	 viewBox="0 0 244.763 244.763" style="enable-background:new 0 0 244.763 244.763;" xml:space="preserve">
	<g>
		<path style="fill:#ffffff;" d="M0,92.744v50.311h93.416V81.866H10.878C4.873,81.866,0,86.734,0,92.744z"/>
		<path style="fill:#ffffff;" d="M233.88,81.866h-82.527v61.189h93.41V92.744C244.758,86.734,239.89,81.866,233.88,81.866z"/>
		<path style="fill:#ffffff;" d="M11.558,227.361c0,6.005,4.873,10.878,10.878,10.878h70.98v-82.946H11.558V227.361z"/>
		<path style="fill:#ffffff;" d="M151.353,238.239h70.969c6.005,0,10.878-4.873,10.878-10.878v-72.068h-81.847V238.239z"/>
		<path style="fill:#ffffff;" d="M152.044,79.022l33.086-6.081c9.344-1.724,15.762-9.431,14.337-17.226
			c-1.436-7.783-10.176-12.706-19.526-10.987l-9.41,1.719c-9.344,1.724-13.119-3.579-8.431-11.852l2.513-4.427
			c4.688-8.262,2.915-18.139-3.976-22.045c-6.891-3.922-16.268-0.381-20.968,7.881l-9.023,15.92c-4.699,8.273-12.298,8.273-16.997,0
			l-9.023-15.92C99.927,7.743,90.544,4.202,83.658,8.123c-6.897,3.905-8.67,13.783-3.981,22.045l2.513,4.427
			c4.688,8.267,0.919,13.576-8.431,11.852l-9.41-1.719C55,43.01,46.265,47.932,44.823,55.715
			c-1.43,7.794,4.993,15.501,14.337,17.226l33.086,6.081c3.791,0.702,7.473,1.713,10.639,2.845h-0.468v156.373h39.466V81.866h-0.468
			C144.57,80.735,148.247,79.723,152.044,79.022z"/>
	</g>
</svg>